<svg width="900" height="900" viewBox="0 0 900 900" fill="none" xmlns="http://www.w3.org/2000/svg">
<rect width="900" height="900" fill="#FDD835"/>
<path fill-rule="evenodd" clip-rule="evenodd" d="M450 139C346.723 139 263 222.723 263 326V574C263 677.277 346.723 761 450 761C553.277 761 637 677.277 637 574V326C637 222.723 553.277 139 450 139ZM420 256C406.193 256 395 267.193 395 281V619C395 632.807 406.193 644 420 644H480C493.807 644 505 632.807 505 619V281C505 267.193 493.807 256 480 256H420Z" fill="black"/>
</svg>
